<?xml version="1.0" encoding="utf-8"?>
<!-- Generator: Adobe Illustrator 16.0.0, SVG Export Plug-In . SVG Version: 6.00 Build 0)  -->
<!DOCTYPE svg PUBLIC "-//W3C//DTD SVG 1.1//EN" "http://www.w3.org/Graphics/SVG/1.1/DTD/svg11.dtd">
<svg version="1.1" id="Warstwa_1" xmlns="http://www.w3.org/2000/svg" xmlns:xlink="http://www.w3.org/1999/xlink" x="0px" y="0px"
	 width="514.05px" height="200px" viewBox="0 0 514.05 200" enable-background="new 0 0 514.05 200" xml:space="preserve">
<g>
	<g>
		<g>
			<path fill="#FFFFFF" d="M24.316,116.246V46.532h24.292v69.019c0,19.871,8.994,30.152,23.826,30.152
				c14.828,0,23.82-9.934,23.82-29.285V46.532h24.295v68.847c0,36.945-18.771,55.076-48.433,55.076
				C42.457,170.455,24.316,152.154,24.316,116.246z"/>
			<path fill="#FFFFFF" d="M171.03,71.28h-38.614V46.532h101.527V71.28h-38.619v97.257H171.03V71.28z"/>
			<path fill="#FFFFFF" d="M245.831,46.532h45.113c26.348,0,42.275,17.256,42.275,42.178v0.352c0,28.23-19.873,42.874-44.645,42.874
				h-18.454v36.604h-24.292V46.532H245.831z M289.37,108.055c12.146,0,19.248-8.014,19.248-18.472v-0.35
				c0-12.028-7.574-18.472-19.727-18.472h-18.769v37.294H289.37z"/>
			<path fill="#FFFFFF" d="M343.731,46.532h24.297v97.601h58.613v24.404h-82.91V46.532z"/>
		</g>
	</g>
</g>
<line fill="none" x1="444.05" y1="0" x2="444.05" y2="200"/>
</svg>
